# xmcd CD database file generated by Grip 2.96
# 
# Track frame offsets:
#       150
#       15106
#       27552
#       39312
#       56070
#       70471
#       84968
#       93651
#       102037
#       118459
# 
# Disc length: 1806 seconds
# 
# Revision: 0
# Processed by: cddbd v1.4PL0 Copyright (c) Steve Scherf et al.
# Submitted via: Grip 2.96
# 
DISCID=7d070c0a
DTITLE=Bat McGrath - From The Blue Eagle
DYEAR=1900
DGENRE=
TTITLE0=Spaced Out
TTITLE1=Maruda
TTITLE2=Fly and The Vision
TTITLE3=Cool Breeze
TTITLE4=Wegmans
TTITLE5=Blue Eagle
TTITLE6=Crabby
TTITLE7=Western Florida
TTITLE8=John McCloud
TTITLE9=Faye and Albert
EXTD=
EXTT0=
EXTT1=
EXTT2=
EXTT3=
EXTT4=
EXTT5=
EXTT6=
EXTT7=
EXTT8=
EXTT9=
PLAYORDER=
